<mxfile host="Electron" agent="Mozilla/5.0 (Windows NT 10.0; Win64; x64) AppleWebKit/537.36 (KHTML, like Gecko) draw.io/24.7.17 Chrome/128.0.6613.36 Electron/32.0.1 Safari/537.36" version="24.7.17">
  <diagram name="Page-1" id="Ut5hU0NBKLfdNonmv2bD">
    <mxGraphModel dx="2367" dy="1370" grid="1" gridSize="10" guides="1" tooltips="1" connect="1" arrows="1" fold="1" page="1" pageScale="1" pageWidth="1920" pageHeight="1080" math="0" shadow="0">
      <root>
        <mxCell id="0" />
        <mxCell id="1" parent="0" />
        <mxCell id="x_hv3cZNbZZg8KgUZnjr-3" value="" style="rounded=0;whiteSpace=wrap;html=1;fillColor=#212529;fontColor=#333333;strokeColor=#666666;movable=0;resizable=0;rotatable=0;deletable=0;editable=0;locked=1;connectable=0;" vertex="1" parent="1">
          <mxGeometry width="1920" height="1080" as="geometry" />
        </mxCell>
        <mxCell id="x_hv3cZNbZZg8KgUZnjr-17" value="&lt;font style=&quot;font-size: 30px;&quot;&gt;Resultaten&lt;/font&gt;" style="text;html=1;align=center;verticalAlign=middle;whiteSpace=wrap;rounded=0;" vertex="1" parent="1">
          <mxGeometry x="370" y="300" width="150" height="30" as="geometry" />
        </mxCell>
        <mxCell id="x_hv3cZNbZZg8KgUZnjr-18" value="&lt;font style=&quot;font-size: 30px;&quot;&gt;Resultaten&lt;/font&gt;" style="text;html=1;align=center;verticalAlign=middle;whiteSpace=wrap;rounded=0;" vertex="1" parent="1">
          <mxGeometry x="370" y="420" width="150" height="30" as="geometry" />
        </mxCell>
        <mxCell id="x_hv3cZNbZZg8KgUZnjr-19" value="&lt;font style=&quot;font-size: 30px;&quot;&gt;Resultaten&lt;/font&gt;" style="text;html=1;align=center;verticalAlign=middle;whiteSpace=wrap;rounded=0;" vertex="1" parent="1">
          <mxGeometry x="370" y="550" width="150" height="30" as="geometry" />
        </mxCell>
        <mxCell id="x_hv3cZNbZZg8KgUZnjr-25" value="" style="group" vertex="1" connectable="0" parent="1">
          <mxGeometry x="610" y="50" width="700" height="72" as="geometry" />
        </mxCell>
        <mxCell id="x_hv3cZNbZZg8KgUZnjr-10" value="" style="rounded=0;whiteSpace=wrap;html=1;fillColor=none;fontColor=#333333;strokeColor=#FFFFFF;strokeWidth=3;shadow=0;glass=0;" vertex="1" parent="x_hv3cZNbZZg8KgUZnjr-25">
          <mxGeometry y="70" width="700" height="2" as="geometry" />
        </mxCell>
        <mxCell id="x_hv3cZNbZZg8KgUZnjr-13" value="&lt;font style=&quot;font-size: 24px;&quot;&gt;Home&lt;/font&gt;" style="text;html=1;align=center;verticalAlign=middle;whiteSpace=wrap;rounded=0;" vertex="1" parent="x_hv3cZNbZZg8KgUZnjr-25">
          <mxGeometry x="320" width="60" height="30" as="geometry" />
        </mxCell>
        <mxCell id="x_hv3cZNbZZg8KgUZnjr-14" value="&lt;span style=&quot;font-size: 24px;&quot;&gt;Login&lt;/span&gt;" style="text;html=1;align=center;verticalAlign=middle;whiteSpace=wrap;rounded=0;" vertex="1" parent="x_hv3cZNbZZg8KgUZnjr-25">
          <mxGeometry x="560" width="60" height="30" as="geometry" />
        </mxCell>
        <mxCell id="x_hv3cZNbZZg8KgUZnjr-16" value="&lt;font style=&quot;font-size: 24px;&quot;&gt;Stemmen&lt;/font&gt;" style="text;html=1;align=center;verticalAlign=middle;whiteSpace=wrap;rounded=0;" vertex="1" parent="x_hv3cZNbZZg8KgUZnjr-25">
          <mxGeometry x="80" width="60" height="30" as="geometry" />
        </mxCell>
        <mxCell id="x_hv3cZNbZZg8KgUZnjr-26" value="&lt;font style=&quot;font-size: 20px;&quot;&gt;Doe mee aan het stemmen&lt;/font&gt;" style="text;html=1;align=center;verticalAlign=middle;whiteSpace=wrap;rounded=0;" vertex="1" parent="1">
          <mxGeometry x="950" y="790" width="360" height="30" as="geometry" />
        </mxCell>
      </root>
    </mxGraphModel>
  </diagram>
</mxfile>
